Geologica-LightSharp.ufo
<glyph name="plus" format="2">
  <advance width="1296"/>
  <unicode hex="002B"/>
  <outline>
    <contour>
      <point x="598" y="220" type="line"/>
      <point x="698" y="220" type="line"/>
      <point x="698" y="616" type="line"/>
      <point x="1116" y="616" type="line"/>
      <point x="1116" y="712" type="line"/>
      <point x="698" y="712" type="line"/>
      <point x="698" y="1108" type="line"/>
      <point x="598" y="1108" type="line"/>
      <point x="598" y="712" type="line"/>
      <point x="180" y="712" type="line"/>
      <point x="180" y="616" type="line"/>
      <point x="598" y="616" type="line"/>
    </contour>
  </outline>
</glyph>
<glyph name="slash" format="2">
  <advance width="892"/>
  <unicode hex="002F"/>
  <outline>
    <contour>
      <point x="125" y="-220" type="line"/>
      <point x="884" y="1600" type="line"/>
      <point x="767" y="1600" type="line"/>
      <point x="8" y="-220" type="line"/>
    </contour>
  </outline>
</glyph>
<glyph name="one" format="2">
  <advance width="764"/>
  <unicode hex="0031"/>
  <outline>
    <contour>
      <point x="412" y="0" type="line"/>
      <point x="524" y="0" type="line"/>
      <point x="524" y="1430" type="line"/>
      <point x="514" y="1430" type="line"/>
      <point x="4" y="1234" type="line"/>
      <point x="4" y="1134" type="line"/>
      <point x="412" y="1288" type="line"/>
    </contour>
  </outline>
</glyph>
<glyph name="less" format="2">
  <advance width="1296"/>
  <unicode hex="003C"/>
  <outline>
    <contour>
      <point x="1116" y="236" type="line"/>
      <point x="1116" y="355" type="line"/>
      <point x="334" y="668" type="line"/>
      <point x="1116" y="979" type="line"/>
      <point x="1116" y="1096" type="line"/>
      <point x="180" y="714" type="line"/>
      <point x="180" y="622" type="line"/>
    </contour>
  </outline>
</glyph>
<glyph name="A" format="2">
  <advance width="1324"/>
  <unicode hex="0041"/>
  <anchor x="650" y="0" name="bottom"/>
  <anchor x="1288" y="0" name="ogonek"/>
  <anchor x="650" y="1400" name="top"/>
  <anchor x="332" y="1400" name="topleft"/>
  <outline>
    <contour>
      <point x="36" y="0" type="line"/>
      <point x="162" y="0" type="line"/>
      <point x="314" y="384" type="line"/>
      <point x="998" y="384" type="line"/>
      <point x="1158" y="0" type="line"/>
      <point x="1288" y="0" type="line"/>
      <point x="700" y="1400" type="line"/>
      <point x="600" y="1400" type="line"/>
    </contour>
    <contour>
      <point x="356" y="492" type="line"/>
      <point x="646" y="1228" type="line"/>
      <point x="954" y="492" type="line"/>
    </contour>
  </outline>
</glyph>
<glyph name="J" format="2">
  <advance width="950"/>
  <unicode hex="004A"/>
  <anchor x="694" y="1400" name="top"/>
  <outline>
    <contour>
      <point x="336" y="-30" type="curve" smooth="yes"/>
      <point x="604" y="-30"/>
      <point x="752" y="120"/>
      <point x="752" y="362" type="curve" smooth="yes"/>
      <point x="752" y="1400" type="line"/>
      <point x="636" y="1400" type="line"/>
      <point x="636" y="366" type="line" smooth="yes"/>
      <point x="636" y="160"/>
      <point x="530" y="78"/>
      <point x="326" y="78" type="curve" smooth="yes"/>
      <point x="236" y="78"/>
      <point x="154" y="102"/>
      <point x="80" y="144" type="curve"/>
      <point x="80" y="29" type="line"/>
      <point x="164" y="-11"/>
      <point x="248" y="-30"/>
    </contour>
  </outline>
</glyph>
<glyph name="M" format="2">
  <advance width="1784"/>
  <unicode hex="004D"/>
  <outline>
    <contour>
      <point x="200" y="0" type="line"/>
      <point x="306" y="0" type="line"/>
      <point x="306" y="1228" type="line"/>
      <point x="290" y="1220" type="line"/>
      <point x="840" y="340" type="line"/>
      <point x="946" y="340" type="line"/>
      <point x="1494" y="1220" type="line"/>
      <point x="1468" y="1228" type="line"/>
      <point x="1468" y="0" type="line"/>
      <point x="1584" y="0" type="line"/>
      <point x="1584" y="1400" type="line"/>
      <point x="1476" y="1400" type="line"/>
      <point x="882" y="424" type="line"/>
      <point x="924" y="424" type="line"/>
      <point x="314" y="1400" type="line"/>
      <point x="200" y="1400" type="line"/>
    </contour>
  </outline>
</glyph>
<glyph name="N" format="2">
  <advance width="1452"/>
  <unicode hex="004E"/>
  <anchor x="726" y="0" name="bottom"/>
  <anchor x="726" y="1400" name="top"/>
  <outline>
    <contour>
      <point x="200" y="0" type="line"/>
      <point x="316" y="0" type="line"/>
      <point x="316" y="1188" type="line"/>
      <point x="1152" y="0" type="line"/>
      <point x="1252" y="0" type="line"/>
      <point x="1252" y="1400" type="line"/>
      <point x="1136" y="1400" type="line"/>
      <point x="1136" y="224" type="line"/>
      <point x="300" y="1400" type="line"/>
      <point x="200" y="1400" type="line"/>
    </contour>
  </outline>
</glyph>
<glyph name="Q" format="2">
  <advance width="1676"/>
  <unicode hex="0051"/>
  <guideline x="999" y="514" angle="42.5805"/>
  <outline>
    <contour>
      <point x="1375" y="0" type="line"/>
      <point x="1508" y="0" type="line"/>
      <point x="1354" y="180" type="line"/>
      <point x="1484" y="312"/>
      <point x="1564" y="494"/>
      <point x="1564" y="700" type="curve" smooth="yes"/>
      <point x="1564" y="1108"/>
      <point x="1246" y="1430"/>
      <point x="838" y="1430" type="curve" smooth="yes"/>
      <point x="426" y="1430"/>
      <point x="112" y="1116"/>
      <point x="112" y="700" type="curve" smooth="yes"/>
      <point x="112" y="286"/>
      <point x="426" y="-30"/>
      <point x="838" y="-30" type="curve" smooth="yes"/>
      <point x="1006" y="-30"/>
      <point x="1158" y="24"/>
      <point x="1280" y="114" type="curve"/>
    </contour>
    <contour>
      <point x="838" y="82" type="curve" smooth="yes"/>
      <point x="502" y="82"/>
      <point x="232" y="328"/>
      <point x="232" y="700" type="curve" smooth="yes"/>
      <point x="232" y="1072"/>
      <point x="502" y="1318"/>
      <point x="838" y="1318" type="curve" smooth="yes"/>
      <point x="1174" y="1318"/>
      <point x="1444" y="1072"/>
      <point x="1444" y="700" type="curve" smooth="yes"/>
      <point x="1444" y="522"/>
      <point x="1382" y="374"/>
      <point x="1282" y="266" type="curve"/>
      <point x="1066" y="514" type="line"/>
      <point x="932" y="515" type="line"/>
      <point x="1206" y="200" type="line"/>
      <point x="1104" y="124"/>
      <point x="978" y="82"/>
    </contour>
  </outline>
</glyph>
<glyph name="V" format="2">
  <advance width="1256"/>
  <unicode hex="0056"/>
  <outline>
    <contour>
      <point x="590" y="0" type="line"/>
      <point x="690" y="0" type="line"/>
      <point x="1226" y="1400" type="line"/>
      <point x="1100" y="1400" type="line"/>
      <point x="642" y="176" type="line"/>
      <point x="160" y="1400" type="line"/>
      <point x="30" y="1400" type="line"/>
    </contour>
  </outline>
</glyph>
<glyph name="bracketleft" format="2">
  <advance width="666"/>
  <unicode hex="005B"/>
  <outline>
    <contour>
      <point x="224" y="-220" type="line"/>
      <point x="532" y="-220" type="line"/>
      <point x="532" y="-124" type="line"/>
      <point x="324" y="-124" type="line"/>
      <point x="324" y="1504" type="line"/>
      <point x="532" y="1504" type="line"/>
      <point x="532" y="1600" type="line"/>
      <point x="224" y="1600" type="line"/>
    </contour>
  </outline>
</glyph>
<glyph name="asciicircum" format="2">
  <advance width="1296"/>
  <unicode hex="005E"/>
  <outline>
    <contour>
      <point x="220" y="850" type="line"/>
      <point x="346" y="850" type="line"/>
      <point x="648" y="1310" type="line"/>
      <point x="950" y="850" type="line"/>
      <point x="1076" y="850" type="line"/>
      <point x="712" y="1400" type="line"/>
      <point x="584" y="1400" type="line"/>
    </contour>
  </outline>
</glyph>
<glyph name="l" format="2">
  <advance width="452"/>
  <unicode hex="006C"/>
  <anchor x="226" y="0" name="bottom"/>
  <anchor x="282" y="1440" name="caron"/>
  <anchor x="226" y="1440" name="top"/>
  <outline>
    <contour>
      <point x="170" y="0" type="line"/>
      <point x="282" y="0" type="line"/>
      <point x="282" y="1480" type="line"/>
      <point x="170" y="1338" type="line"/>
    </contour>
  </outline>
</glyph>
<glyph name="m" format="2">
  <advance width="1818"/>
  <unicode hex="006D"/>
  <outline>
    <contour>
      <point x="170" y="0" type="line"/>
      <point x="282" y="0" type="line"/>
      <point x="282" y="570" type="line" smooth="yes"/>
      <point x="282" y="756"/>
      <point x="420" y="882"/>
      <point x="592" y="882" type="curve" smooth="yes"/>
      <point x="768" y="882"/>
      <point x="858" y="772"/>
      <point x="858" y="612" type="curve" smooth="yes"/>
      <point x="858" y="0" type="line"/>
      <point x="970" y="0" type="line"/>
      <point x="970" y="570" type="line" smooth="yes"/>
      <point x="970" y="756"/>
      <point x="1108" y="882"/>
      <point x="1280" y="882" type="curve" smooth="yes"/>
      <point x="1456" y="882"/>
      <point x="1546" y="772"/>
      <point x="1546" y="612" type="curve" smooth="yes"/>
      <point x="1546" y="0" type="line"/>
      <point x="1658" y="0" type="line"/>
      <point x="1658" y="646" type="line" smooth="yes"/>
      <point x="1658" y="808"/>
      <point x="1554" y="990"/>
      <point x="1300" y="990" type="curve" smooth="yes"/>
      <point x="1186" y="990"/>
      <point x="1054" y="956"/>
      <point x="938" y="798" type="curve"/>
      <point x="890" y="904"/>
      <point x="786" y="990"/>
      <point x="612" y="990" type="curve" smooth="yes"/>
      <point x="490" y="990"/>
      <point x="370" y="942"/>
      <point x="282" y="814" type="curve"/>
      <point x="282" y="1000" type="line"/>
      <point x="170" y="860" type="line"/>
    </contour>
  </outline>
</glyph>
<glyph name="u" format="2">
  <advance width="1142"/>
  <unicode hex="0075"/>
  <anchor x="554" y="0" name="bottom"/>
  <anchor x="972" y="0" name="descender"/>
  <anchor x="972" y="960" name="horn"/>
  <anchor x="972" y="0" name="ogonek"/>
  <anchor x="562" y="960" name="top"/>
  <outline>
    <contour>
      <point x="534" y="-30" type="curve" smooth="yes"/>
      <point x="654" y="-30"/>
      <point x="770" y="14"/>
      <point x="860" y="126" type="curve"/>
      <point x="860" y="0" type="line"/>
      <point x="972" y="0" type="line"/>
      <point x="972" y="1000" type="line"/>
      <point x="860" y="858" type="line"/>
      <point x="860" y="390" type="line" smooth="yes"/>
      <point x="860" y="204"/>
      <point x="722" y="78"/>
      <point x="554" y="78" type="curve" smooth="yes"/>
      <point x="380" y="78"/>
      <point x="272" y="188"/>
      <point x="272" y="348" type="curve" smooth="yes"/>
      <point x="272" y="1000" type="line"/>
      <point x="160" y="858" type="line"/>
      <point x="160" y="314" type="line" smooth="yes"/>
      <point x="160" y="152"/>
      <point x="282" y="-30"/>
    </contour>
  </outline>
</glyph>
<glyph name="w" format="2">
  <advance width="1498"/>
  <unicode hex="0077"/>
  <anchor x="750" y="960" name="top"/>
  <outline>
    <contour>
      <point x="358" y="0" type="line"/>
      <point x="486" y="0" type="line"/>
      <point x="754" y="802" type="line"/>
      <point x="1012" y="0" type="line"/>
      <point x="1140" y="0" type="line"/>
      <point x="1456" y="960" type="line"/>
      <point x="1344" y="960" type="line"/>
      <point x="1076" y="132" type="line"/>
      <point x="824" y="960" type="line"/>
      <point x="696" y="960" type="line"/>
      <point x="422" y="132" type="line"/>
      <point x="164" y="960" type="line"/>
      <point x="42" y="960" type="line"/>
    </contour>
  </outline>
</glyph>
<glyph name="cent" format="2">
  <advance width="1296"/>
  <unicode hex="00A2"/>
  <outline>
    <contour>
      <point x="662" y="-160" type="line"/>
      <point x="762" y="-160" type="line"/>
      <point x="762" y="2" type="line"/>
      <point x="850" y="8"/>
      <point x="926" y="36"/>
      <point x="998" y="82" type="curve"/>
      <point x="998" y="192" type="line"/>
      <point x="950" y="146"/>
      <point x="860" y="108"/>
      <point x="762" y="100" type="curve"/>
      <point x="762" y="862" type="line"/>
      <point x="850" y="858"/>
      <point x="924" y="832"/>
      <point x="984" y="792" type="curve"/>
      <point x="984" y="898" type="line"/>
      <point x="916" y="938"/>
      <point x="846" y="958"/>
      <point x="762" y="960" type="curve"/>
      <point x="762" y="1120" type="line"/>
      <point x="662" y="1120" type="line"/>
      <point x="662" y="954" type="line"/>
      <point x="420" y="920"/>
      <point x="238" y="742"/>
      <point x="238" y="480" type="curve" smooth="yes"/>
      <point x="238" y="216"/>
      <point x="418" y="32"/>
      <point x="662" y="4" type="curve"/>
    </contour>
    <contour>
      <point x="662" y="102" type="line"/>
      <point x="462" y="128"/>
      <point x="342" y="260"/>
      <point x="342" y="482" type="curve" smooth="yes"/>
      <point x="342" y="702"/>
      <point x="462" y="834"/>
      <point x="662" y="860" type="curve"/>
    </contour>
  </outline>
</glyph>
<glyph name="registered" format="2">
  <advance width="1244"/>
  <unicode hex="00AE"/>
  <anchor x="648" y="714" name="bottom"/>
  <anchor x="622" y="988" name="center"/>
  <anchor x="622" y="1262" name="top"/>
  <outline>
    <contour>
      <point x="622" y="478" type="curve" smooth="yes"/>
      <point x="920" y="478"/>
      <point x="1146" y="700"/>
      <point x="1146" y="988" type="curve" smooth="yes"/>
      <point x="1146" y="1274"/>
      <point x="918" y="1500"/>
      <point x="622" y="1500" type="curve" smooth="yes"/>
      <point x="324" y="1500"/>
      <point x="98" y="1280"/>
      <point x="98" y="988" type="curve" smooth="yes"/>
      <point x="98" y="700"/>
      <point x="322" y="478"/>
    </contour>
    <contour>
      <point x="622" y="544" type="curve" smooth="yes"/>
      <point x="384" y="544"/>
      <point x="172" y="722"/>
      <point x="172" y="988" type="curve" smooth="yes"/>
      <point x="172" y="1256"/>
      <point x="384" y="1434"/>
      <point x="622" y="1434" type="curve" smooth="yes"/>
      <point x="860" y="1434"/>
      <point x="1072" y="1256"/>
      <point x="1072" y="988" type="curve" smooth="yes"/>
      <point x="1072" y="722"/>
      <point x="860" y="544"/>
    </contour>
    <contour>
      <point x="440" y="714" type="line"/>
      <point x="520" y="714" type="line"/>
      <point x="520" y="938" type="line"/>
      <point x="606" y="938" type="line"/>
      <point x="774" y="714" type="line"/>
      <point x="872" y="714" type="line"/>
      <point x="694" y="950" type="line"/>
      <point x="784" y="964"/>
      <point x="846" y="1020"/>
      <point x="846" y="1100" type="curve" smooth="yes"/>
      <point x="846" y="1200"/>
      <point x="770" y="1262"/>
      <point x="654" y="1262" type="curve" smooth="yes"/>
      <point x="440" y="1262" type="line"/>
    </contour>
    <contour>
      <point x="520" y="1006" type="line"/>
      <point x="520" y="1194" type="line"/>
      <point x="646" y="1194" type="line" smooth="yes"/>
      <point x="724" y="1194"/>
      <point x="762" y="1156"/>
      <point x="762" y="1098" type="curve" smooth="yes"/>
      <point x="762" y="1040"/>
      <point x="716" y="1006"/>
      <point x="638" y="1006" type="curve" smooth="yes"/>
    </contour>
  </outline>
</glyph>
<glyph name="eth" format="2">
  <advance width="1147"/>
  <unicode hex="00F0"/>
  <outline>
    <contour>
      <point x="566" y="-30" type="curve" smooth="yes"/>
      <point x="850" y="-30"/>
      <point x="1062" y="198"/>
      <point x="1062" y="490" type="curve" smooth="yes"/>
      <point x="1062" y="834"/>
      <point x="874" y="1156"/>
      <point x="496" y="1440" type="curve"/>
      <point x="316" y="1440" type="line"/>
      <point x="566" y="1272"/>
      <point x="758" y="1072"/>
      <point x="868" y="852" type="curve"/>
      <point x="880" y="858" type="line"/>
      <point x="796" y="928"/>
      <point x="688" y="970"/>
      <point x="566" y="970" type="curve" smooth="yes"/>
      <point x="288" y="970"/>
      <point x="80" y="742"/>
      <point x="80" y="470" type="curve" smooth="yes"/>
      <point x="80" y="198"/>
      <point x="288" y="-30"/>
    </contour>
    <contour>
      <point x="566" y="78" type="curve" smooth="yes"/>
      <point x="352" y="78"/>
      <point x="200" y="230"/>
      <point x="200" y="470" type="curve" smooth="yes"/>
      <point x="200" y="710"/>
      <point x="352" y="862"/>
      <point x="566" y="862" type="curve" smooth="yes"/>
      <point x="786" y="862"/>
      <point x="942" y="710"/>
      <point x="942" y="470" type="curve" smooth="yes"/>
      <point x="942" y="230"/>
      <point x="786" y="78"/>
    </contour>
    <contour>
      <point x="334" y="1106" type="line"/>
      <point x="604" y="1232" type="line"/>
      <point x="604" y="1234" type="line"/>
      <point x="858" y="1356" type="line"/>
      <point x="858" y="1454" type="line"/>
      <point x="604" y="1332" type="line"/>
      <point x="604" y="1330" type="line"/>
      <point x="334" y="1204" type="line"/>
    </contour>
  </outline>
</glyph>
<glyph name="lslash" format="2">
  <advance width="592"/>
  <unicode hex="0142"/>
  <anchor x="296" y="0" name="bottom"/>
  <anchor x="352" y="1440" name="caron"/>
  <anchor x="296" y="1440" name="top"/>
  <outline>
    <contour>
      <point x="66" y="494" type="line"/>
      <point x="296" y="602" type="line"/>
      <point x="296" y="592" type="line"/>
      <point x="526" y="700" type="line"/>
      <point x="526" y="798" type="line"/>
      <point x="296" y="690" type="line"/>
      <point x="296" y="700" type="line"/>
      <point x="66" y="592" type="line"/>
    </contour>
    <component base="l" xOffset="70"/>
  </outline>
</glyph>
<glyph name="tildecomb" format="2">
  <unicode hex="0303"/>
  <anchor x="-586" y="960" name="_top"/>
  <anchor x="-586" y="1344" name="top"/>
  <outline>
    <contour>
      <point x="-907" y="1246" type="line"/>
      <point x="-868" y="1302"/>
      <point x="-816" y="1330"/>
      <point x="-743" y="1330" type="curve" smooth="yes"/>
      <point x="-658" y="1330"/>
      <point x="-547" y="1246"/>
      <point x="-439" y="1246" type="curve" smooth="yes"/>
      <point x="-366" y="1246"/>
      <point x="-309" y="1275"/>
      <point x="-265" y="1325" type="curve"/>
      <point x="-265" y="1430" type="line"/>
      <point x="-304" y="1374"/>
      <point x="-356" y="1346"/>
      <point x="-429" y="1346" type="curve" smooth="yes"/>
      <point x="-514" y="1346"/>
      <point x="-625" y="1430"/>
      <point x="-733" y="1430" type="curve" smooth="yes"/>
      <point x="-806" y="1430"/>
      <point x="-864" y="1401"/>
      <point x="-907" y="1351" type="curve"/>
    </contour>
  </outline>
</glyph>
<glyph name="dblgravecomb" format="2">
  <unicode hex="030F"/>
  <anchor x="-586" y="960" name="_top"/>
  <outline>
    <contour>
      <point x="-470" y="1170" type="line"/>
      <point x="-362" y="1170" type="line"/>
      <point x="-544" y="1504" type="line"/>
      <point x="-664" y="1504" type="line"/>
    </contour>
    <contour>
      <point x="-810" y="1170" type="line"/>
      <point x="-702" y="1170" type="line"/>
      <point x="-884" y="1504" type="line"/>
      <point x="-1004" y="1504" type="line"/>
    </contour>
  </outline>
</glyph>
<glyph name="macronbelowcomb" format="2">
  <unicode hex="0331"/>
  <anchor x="-586" y="0" name="_bottom"/>
  <outline>
    <contour>
      <point x="-874" y="-374" type="line"/>
      <point x="-298" y="-374" type="line"/>
      <point x="-298" y="-270" type="line"/>
      <point x="-874" y="-270" type="line"/>
    </contour>
  </outline>
</glyph>
<glyph name="Lambda" format="2">
  <advance width="1278"/>
  <unicode hex="039B"/>
  <outline>
    <contour>
      <point x="41" y="0" type="line"/>
      <point x="171" y="0" type="line"/>
      <point x="625" y="1218" type="line"/>
      <point x="1103" y="0" type="line"/>
      <point x="1237" y="0" type="line"/>
      <point x="677" y="1400" type="line"/>
      <point x="577" y="1400" type="line"/>
    </contour>
  </outline>
</glyph>
<glyph name="Omega" format="2">
  <advance width="1688"/>
  <unicode hex="03A9"/>
  <anchor x="838" y="0" name="bottom"/>
  <anchor x="172" y="1400" name="topleft"/>
  <outline>
    <contour>
      <point x="82" y="0" type="line"/>
      <point x="676" y="0" type="line"/>
      <point x="676" y="108" type="line"/>
      <point x="446" y="184"/>
      <point x="252" y="426"/>
      <point x="252" y="728" type="curve" smooth="yes"/>
      <point x="252" y="1100"/>
      <point x="502" y="1318"/>
      <point x="838" y="1318" type="curve" smooth="yes"/>
      <point x="1174" y="1318"/>
      <point x="1424" y="1100"/>
      <point x="1424" y="728" type="curve" smooth="yes"/>
      <point x="1424" y="426"/>
      <point x="1230" y="184"/>
      <point x="1000" y="108" type="curve"/>
      <point x="1000" y="0" type="line"/>
      <point x="1582" y="0" type="line"/>
      <point x="1606" y="108" type="line"/>
      <point x="1186" y="104" type="line"/>
      <point x="1432" y="240"/>
      <point x="1544" y="480"/>
      <point x="1544" y="728" type="curve" smooth="yes"/>
      <point x="1544" y="1144"/>
      <point x="1250" y="1430"/>
      <point x="838" y="1430" type="curve" smooth="yes"/>
      <point x="426" y="1430"/>
      <point x="132" y="1144"/>
      <point x="132" y="728" type="curve" smooth="yes"/>
      <point x="132" y="480"/>
      <point x="244" y="240"/>
      <point x="490" y="104" type="curve"/>
      <point x="82" y="108" type="line"/>
    </contour>
  </outline>
</glyph>
<glyph name="delta" format="2">
  <advance width="1122"/>
  <unicode hex="03B4"/>
  <outline>
    <contour>
      <point x="558" y="-30" type="curve" smooth="yes"/>
      <point x="844" y="-30"/>
      <point x="1042" y="188"/>
      <point x="1042" y="462" type="curve" smooth="yes"/>
      <point x="1042" y="748"/>
      <point x="846" y="876"/>
      <point x="654" y="962" type="curve" smooth="yes"/>
      <point x="502" y="1030"/>
      <point x="348" y="1100"/>
      <point x="348" y="1220" type="curve" smooth="yes"/>
      <point x="348" y="1302"/>
      <point x="420" y="1362"/>
      <point x="600" y="1362" type="curve" smooth="yes"/>
      <point x="704" y="1362"/>
      <point x="798" y="1338"/>
      <point x="888" y="1272" type="curve"/>
      <point x="888" y="1402" type="line"/>
      <point x="796" y="1450"/>
      <point x="704" y="1470"/>
      <point x="604" y="1470" type="curve" smooth="yes"/>
      <point x="364" y="1470"/>
      <point x="234" y="1362"/>
      <point x="234" y="1214" type="curve" smooth="yes"/>
      <point x="234" y="1092"/>
      <point x="322" y="1008"/>
      <point x="464" y="950" type="curve"/>
      <point x="198" y="880"/>
      <point x="80" y="692"/>
      <point x="80" y="472" type="curve" smooth="yes"/>
      <point x="80" y="198"/>
      <point x="264" y="-30"/>
    </contour>
    <contour>
      <point x="560" y="78" type="curve" smooth="yes"/>
      <point x="330" y="78"/>
      <point x="200" y="230"/>
      <point x="200" y="472" type="curve" smooth="yes"/>
      <point x="200" y="724"/>
      <point x="346" y="830"/>
      <point x="568" y="880" type="curve"/>
      <point x="748" y="808"/>
      <point x="922" y="708"/>
      <point x="922" y="462" type="curve" smooth="yes"/>
      <point x="922" y="220"/>
      <point x="782" y="78"/>
    </contour>
  </outline>
</glyph>
<glyph name="xi" format="2">
  <advance width="886"/>
  <unicode hex="03BE"/>
  <outline>
    <contour>
      <point x="747" y="-420" type="line"/>
      <point x="800" y="-312"/>
      <point x="823" y="-231"/>
      <point x="823" y="-156" type="curve" smooth="yes"/>
      <point x="823" y="209"/>
      <point x="201" y="94"/>
      <point x="201" y="460" type="curve" smooth="yes"/>
      <point x="201" y="645"/>
      <point x="340" y="762"/>
      <point x="559" y="762" type="curve" smooth="yes"/>
      <point x="744" y="762" type="line"/>
      <point x="744" y="867" type="line"/>
      <point x="560" y="867" type="line" smooth="yes"/>
      <point x="379" y="867"/>
      <point x="254" y="972"/>
      <point x="254" y="1124" type="curve" smooth="yes"/>
      <point x="254" y="1277"/>
      <point x="363" y="1362"/>
      <point x="558" y="1362" type="curve" smooth="yes"/>
      <point x="670" y="1362"/>
      <point x="764" y="1341"/>
      <point x="846" y="1299" type="curve"/>
      <point x="846" y="1415" type="line"/>
      <point x="764" y="1452"/>
      <point x="672" y="1470"/>
      <point x="567" y="1470" type="curve" smooth="yes"/>
      <point x="302" y="1470"/>
      <point x="137" y="1332"/>
      <point x="137" y="1111" type="curve" smooth="yes"/>
      <point x="137" y="981"/>
      <point x="207" y="877"/>
      <point x="341" y="809" type="curve"/>
      <point x="171" y="736"/>
      <point x="80" y="613"/>
      <point x="80" y="458" type="curve" smooth="yes"/>
      <point x="80" y="16"/>
      <point x="711" y="85"/>
      <point x="711" y="-178" type="curve" smooth="yes"/>
      <point x="711" y="-232"/>
      <point x="698" y="-290"/>
      <point x="630" y="-420" type="curve"/>
    </contour>
  </outline>
</glyph>
<glyph name="tau" format="2">
  <advance width="812"/>
  <unicode hex="03C4"/>
  <outline>
    <contour>
      <point x="516" y="-28" type="curve" smooth="yes"/>
      <point x="558" y="-28"/>
      <point x="612" y="-20"/>
      <point x="652" y="-8" type="curve"/>
      <point x="652" y="110" type="line"/>
      <point x="600" y="90"/>
      <point x="558" y="80"/>
      <point x="524" y="80" type="curve" smooth="yes"/>
      <point x="446" y="80"/>
      <point x="412" y="132"/>
      <point x="412" y="258" type="curve" smooth="yes"/>
      <point x="412" y="852" type="line"/>
      <point x="748" y="852" type="line"/>
      <point x="748" y="960" type="line"/>
      <point x="34" y="960" type="line"/>
      <point x="10" y="852" type="line"/>
      <point x="300" y="852" type="line"/>
      <point x="300" y="180" type="line" smooth="yes"/>
      <point x="300" y="36"/>
      <point x="398" y="-28"/>
    </contour>
  </outline>
</glyph>
<glyph name="psi" format="2">
  <advance width="1353"/>
  <unicode hex="03C8"/>
  <outline>
    <contour>
      <point x="622" y="-420" type="line"/>
      <point x="734" y="-420" type="line"/>
      <point x="734" y="0" type="line"/>
      <point x="1064" y="0"/>
      <point x="1238" y="203"/>
      <point x="1238" y="456" type="curve" smooth="yes"/>
      <point x="1238" y="644"/>
      <point x="1189" y="818"/>
      <point x="1097" y="960" type="curve"/>
      <point x="965" y="960" type="line"/>
      <point x="1065" y="824"/>
      <point x="1118" y="653"/>
      <point x="1118" y="456" type="curve" smooth="yes"/>
      <point x="1118" y="254"/>
      <point x="998" y="110"/>
      <point x="734" y="108" type="curve"/>
      <point x="734" y="1280" type="line"/>
      <point x="622" y="1280" type="line"/>
      <point x="622" y="108" type="line"/>
      <point x="340" y="120"/>
      <point x="262" y="280"/>
      <point x="262" y="588" type="curve" smooth="yes"/>
      <point x="262" y="1000" type="line"/>
      <point x="150" y="860" type="line"/>
      <point x="150" y="554" type="line" smooth="yes"/>
      <point x="150" y="242"/>
      <point x="244" y="14"/>
      <point x="622" y="0" type="curve"/>
    </contour>
  </outline>
</glyph>
<glyph name="omega" format="2">
  <advance width="1526"/>
  <unicode hex="03C9"/>
  <anchor x="763" y="0" name="bottom"/>
  <anchor x="763" y="960" name="top"/>
  <outline>
    <contour>
      <point x="469" y="-30" type="curve" smooth="yes"/>
      <point x="593" y="-30"/>
      <point x="713" y="46"/>
      <point x="763" y="182" type="curve"/>
      <point x="813" y="46"/>
      <point x="933" y="-30"/>
      <point x="1057" y="-30" type="curve" smooth="yes"/>
      <point x="1289" y="-30"/>
      <point x="1411" y="186"/>
      <point x="1411" y="456" type="curve" smooth="yes"/>
      <point x="1411" y="644"/>
      <point x="1362" y="818"/>
      <point x="1270" y="960" type="curve"/>
      <point x="1138" y="960" type="line"/>
      <point x="1238" y="824"/>
      <point x="1291" y="653"/>
      <point x="1291" y="456" type="curve" smooth="yes"/>
      <point x="1291" y="238"/>
      <point x="1215" y="82"/>
      <point x="1047" y="80" type="curve" smooth="yes"/>
      <point x="882" y="78"/>
      <point x="823" y="212"/>
      <point x="823" y="418" type="curve" smooth="yes"/>
      <point x="823" y="694" type="line"/>
      <point x="703" y="694" type="line"/>
      <point x="703" y="418" type="line" smooth="yes"/>
      <point x="703" y="212"/>
      <point x="645" y="78"/>
      <point x="479" y="80" type="curve" smooth="yes"/>
      <point x="311" y="82"/>
      <point x="235" y="240"/>
      <point x="235" y="456" type="curve" smooth="yes"/>
      <point x="235" y="653"/>
      <point x="288" y="824"/>
      <point x="388" y="960" type="curve"/>
      <point x="256" y="960" type="line"/>
      <point x="164" y="818"/>
      <point x="115" y="644"/>
      <point x="115" y="456" type="curve" smooth="yes"/>
      <point x="115" y="186"/>
      <point x="237" y="-30"/>
    </contour>
  </outline>
</glyph>
<glyph name="Dje-cy" format="2">
  <advance width="1558"/>
  <unicode hex="0402"/>
  <outline>
    <contour>
      <point x="484" y="0" type="line"/>
      <point x="600" y="0" type="line"/>
      <point x="600" y="1292" type="line"/>
      <point x="1292" y="1292" type="line"/>
      <point x="1292" y="1400" type="line"/>
      <point x="82" y="1400" type="line"/>
      <point x="58" y="1292" type="line"/>
      <point x="484" y="1292" type="line"/>
    </contour>
    <contour>
      <point x="1076" y="-270" type="line"/>
      <point x="1350" y="-172"/>
      <point x="1478" y="78"/>
      <point x="1478" y="324" type="curve" smooth="yes"/>
      <point x="1478" y="676"/>
      <point x="1244" y="846"/>
      <point x="912" y="846" type="curve" smooth="yes"/>
      <point x="794" y="846"/>
      <point x="664" y="822"/>
      <point x="528" y="764" type="curve"/>
      <point x="526" y="656" type="line"/>
      <point x="658" y="712"/>
      <point x="784" y="736"/>
      <point x="912" y="736" type="curve" smooth="yes"/>
      <point x="1172" y="736"/>
      <point x="1362" y="620"/>
      <point x="1362" y="324" type="curve" smooth="yes"/>
      <point x="1362" y="120"/>
      <point x="1254" y="-92"/>
      <point x="1026" y="-184" type="curve"/>
    </contour>
  </outline>
</glyph>
<glyph name="E-cy" format="2">
  <advance width="1374"/>
  <unicode hex="0404"/>
  <outline>
    <contour>
      <point x="826" y="-30" type="curve" smooth="yes"/>
      <point x="1000" y="-30"/>
      <point x="1152" y="10"/>
      <point x="1286" y="104" type="curve"/>
      <point x="1286" y="230" type="line"/>
      <point x="1160" y="124"/>
      <point x="1014" y="82"/>
      <point x="850" y="82" type="curve" smooth="yes"/>
      <point x="474" y="82"/>
      <point x="232" y="308"/>
      <point x="232" y="702" type="curve" smooth="yes"/>
      <point x="232" y="1082"/>
      <point x="472" y="1320"/>
      <point x="836" y="1320" type="curve" smooth="yes"/>
      <point x="994" y="1320"/>
      <point x="1126" y="1280"/>
      <point x="1230" y="1198" type="curve"/>
      <point x="1230" y="1328" type="line"/>
      <point x="1128" y="1392"/>
      <point x="990" y="1430"/>
      <point x="826" y="1430" type="curve" smooth="yes"/>
      <point x="410" y="1430"/>
      <point x="112" y="1122"/>
      <point x="112" y="702" type="curve" smooth="yes"/>
      <point x="112" y="264"/>
      <point x="392" y="-30"/>
    </contour>
    <contour>
      <point x="210" y="688" type="line"/>
      <point x="1084" y="688" type="line"/>
      <point x="1084" y="796" type="line"/>
      <point x="210" y="796" type="line"/>
    </contour>
  </outline>
</glyph>
<glyph name="Lje-cy" format="2">
  <advance width="2140"/>
  <unicode hex="0409"/>
  <outline>
    <contour>
      <point x="102" y="-20" type="line"/>
      <point x="304" y="-44"/>
      <point x="470" y="28"/>
      <point x="470" y="280" type="curve" smooth="yes"/>
      <point x="470" y="1292" type="line"/>
      <point x="1120" y="1292" type="line"/>
      <point x="1236" y="1400" type="line"/>
      <point x="354" y="1400" type="line"/>
      <point x="354" y="300" type="line" smooth="yes"/>
      <point x="354" y="120"/>
      <point x="252" y="74"/>
      <point x="102" y="88" type="curve"/>
    </contour>
    <contour>
      <point x="1236" y="108" type="line"/>
      <point x="1236" y="688" type="line"/>
      <point x="1586" y="688" type="line" smooth="yes"/>
      <point x="1802" y="688"/>
      <point x="1934" y="572"/>
      <point x="1934" y="392" type="curve" smooth="yes"/>
      <point x="1934" y="206"/>
      <point x="1806" y="108"/>
      <point x="1584" y="108" type="curve" smooth="yes"/>
    </contour>
    <contour>
      <point x="1120" y="0" type="line"/>
      <point x="1570" y="0" type="line" smooth="yes"/>
      <point x="1878" y="0"/>
      <point x="2050" y="138"/>
      <point x="2050" y="396" type="curve" smooth="yes"/>
      <point x="2050" y="646"/>
      <point x="1856" y="796"/>
      <point x="1572" y="796" type="curve" smooth="yes"/>
      <point x="1236" y="796" type="line"/>
      <point x="1236" y="1400" type="line"/>
      <point x="1120" y="1400" type="line"/>
    </contour>
  </outline>
</glyph>
<glyph name="Zhe-cy" format="2">
  <advance width="1910"/>
  <unicode hex="0416"/>
  <anchor x="1732" y="0" name="descender"/>
  <anchor x="956" y="1400" name="top"/>
  <outline>
    <contour>
      <point x="1682" y="0" type="line"/>
      <point x="1832" y="0" type="line"/>
      <point x="1298" y="756" type="line"/>
      <point x="1754" y="1400" type="line"/>
      <point x="1616" y="1400" type="line"/>
      <point x="1158" y="754" type="line"/>
    </contour>
    <contour>
      <point x="78" y="0" type="line"/>
      <point x="224" y="0" type="line"/>
      <point x="750" y="756" type="line"/>
      <point x="300" y="1400" type="line"/>
      <point x="158" y="1400" type="line"/>
      <point x="610" y="752" type="line"/>
    </contour>
    <contour>
      <point x="898" y="0" type="line"/>
      <point x="1014" y="0" type="line"/>
      <point x="1014" y="698" type="line"/>
      <point x="1242" y="698" type="line"/>
      <point x="1242" y="806" type="line"/>
      <point x="1014" y="806" type="line"/>
      <point x="1014" y="1400" type="line"/>
      <point x="898" y="1400" type="line"/>
      <point x="898" y="806" type="line"/>
      <point x="668" y="806" type="line"/>
      <point x="668" y="698" type="line"/>
      <point x="898" y="698" type="line"/>
    </contour>
  </outline>
</glyph>
<glyph name="Ka-cy" format="2">
  <advance width="1314"/>
  <unicode hex="041A"/>
  <anchor x="1132" y="0" name="descender"/>
  <anchor x="638" y="1400" name="top"/>
  <outline>
    <contour>
      <point x="1072" y="0" type="line"/>
      <point x="1224" y="0" type="line"/>
      <point x="630" y="756" type="line"/>
      <point x="1136" y="1400" type="line"/>
      <point x="998" y="1400" type="line"/>
      <point x="488" y="754" type="line"/>
    </contour>
    <contour>
      <point x="200" y="0" type="line"/>
      <point x="316" y="0" type="line"/>
      <point x="316" y="698" type="line"/>
      <point x="570" y="698" type="line"/>
      <point x="570" y="806" type="line"/>
      <point x="316" y="806" type="line"/>
      <point x="316" y="1400" type="line"/>
      <point x="200" y="1400" type="line"/>
    </contour>
  </outline>
</glyph>
<glyph name="Pe-cy" format="2">
  <advance width="1436"/>
  <unicode hex="041F"/>
  <anchor x="718" y="1400" name="top"/>
  <outline>
    <contour>
      <point x="200" y="0" type="line"/>
      <point x="316" y="0" type="line"/>
      <point x="316" y="1292" type="line"/>
      <point x="1120" y="1292" type="line"/>
      <point x="1120" y="0" type="line"/>
      <point x="1236" y="0" type="line"/>
      <point x="1236" y="1400" type="line"/>
      <point x="200" y="1400" type="line"/>
    </contour>
  </outline>
</glyph>
<glyph name="Ef-cy" format="2">
  <advance width="1628"/>
  <unicode hex="0424"/>
  <outline>
    <contour>
      <point x="760" y="-56" type="line"/>
      <point x="868" y="-56" type="line"/>
      <point x="868" y="124" type="line"/>
      <point x="1254" y="130"/>
      <point x="1526" y="348"/>
      <point x="1526" y="706" type="curve" smooth="yes"/>
      <point x="1526" y="1064"/>
      <point x="1254" y="1284"/>
      <point x="868" y="1290" type="curve"/>
      <point x="868" y="1470" type="line"/>
      <point x="760" y="1470" type="line"/>
      <point x="760" y="1290" type="line"/>
      <point x="374" y="1284"/>
      <point x="102" y="1064"/>
      <point x="102" y="706" type="curve" smooth="yes"/>
      <point x="102" y="348"/>
      <point x="374" y="130"/>
      <point x="760" y="124" type="curve"/>
    </contour>
    <contour>
      <point x="760" y="232" type="line"/>
      <point x="430" y="236"/>
      <point x="222" y="416"/>
      <point x="222" y="706" type="curve" smooth="yes"/>
      <point x="222" y="996"/>
      <point x="430" y="1178"/>
      <point x="760" y="1182" type="curve"/>
    </contour>
    <contour>
      <point x="868" y="232" type="curve"/>
      <point x="868" y="1182" type="line"/>
      <point x="1198" y="1178"/>
      <point x="1406" y="996"/>
      <point x="1406" y="706" type="curve" smooth="yes"/>
      <point x="1406" y="416"/>
      <point x="1198" y="236"/>
    </contour>
  </outline>
</glyph>
<glyph name="Iu-cy" format="2">
  <advance width="2242"/>
  <unicode hex="042E"/>
  <anchor x="1166" y="1400" name="top"/>
  <outline>
    <contour>
      <point x="200" y="0" type="line"/>
      <point x="316" y="0" type="line"/>
      <point x="316" y="698" type="line"/>
      <point x="742" y="698" type="line"/>
      <point x="742" y="806" type="line"/>
      <point x="316" y="806" type="line"/>
      <point x="316" y="1400" type="line"/>
      <point x="200" y="1400" type="line"/>
    </contour>
    <contour>
      <point x="1404" y="-30" type="curve" smooth="yes"/>
      <point x="1812" y="-30"/>
      <point x="2130" y="286"/>
      <point x="2130" y="700" type="curve" smooth="yes"/>
      <point x="2130" y="1108"/>
      <point x="1812" y="1430"/>
      <point x="1404" y="1430" type="curve" smooth="yes"/>
      <point x="992" y="1430"/>
      <point x="678" y="1116"/>
      <point x="678" y="700" type="curve" smooth="yes"/>
      <point x="678" y="286"/>
      <point x="992" y="-30"/>
    </contour>
    <contour>
      <point x="1404" y="82" type="curve" smooth="yes"/>
      <point x="1068" y="82"/>
      <point x="798" y="328"/>
      <point x="798" y="700" type="curve" smooth="yes"/>
      <point x="798" y="1072"/>
      <point x="1068" y="1318"/>
      <point x="1404" y="1318" type="curve" smooth="yes"/>
      <point x="1740" y="1318"/>
      <point x="2010" y="1072"/>
      <point x="2010" y="700" type="curve" smooth="yes"/>
      <point x="2010" y="328"/>
      <point x="1740" y="82"/>
    </contour>
  </outline>
</glyph>
<glyph name="ka-cy" format="2">
  <advance width="1026"/>
  <unicode hex="043A"/>
  <anchor x="886" y="0" name="descender"/>
  <anchor x="508" y="960" name="top"/>
  <outline>
    <contour>
      <point x="826" y="0" type="line"/>
      <point x="966" y="0" type="line"/>
      <point x="612" y="522" type="line"/>
      <point x="894" y="960" type="line"/>
      <point x="770" y="960" type="line"/>
      <point x="488" y="518" type="line"/>
    </contour>
    <contour>
      <point x="170" y="0" type="line"/>
      <point x="282" y="0" type="line"/>
      <point x="280" y="460" type="line"/>
      <point x="564" y="460" type="line"/>
      <point x="564" y="564" type="line"/>
      <point x="280" y="564" type="line"/>
      <point x="282" y="1000" type="line"/>
      <point x="170" y="858" type="line"/>
    </contour>
  </outline>
</glyph>
<glyph name="en-cy" format="2">
  <advance width="1166"/>
  <unicode hex="043D"/>
  <anchor x="996" y="0" name="descender"/>
  <anchor x="582" y="960" name="top"/>
  <outline>
    <contour>
      <point x="170" y="0" type="line"/>
      <point x="282" y="0" type="line"/>
      <point x="280" y="460" type="line"/>
      <point x="884" y="460" type="line"/>
      <point x="884" y="0" type="line"/>
      <point x="996" y="0" type="line"/>
      <point x="996" y="1000" type="line"/>
      <point x="884" y="858" type="line"/>
      <point x="884" y="564" type="line"/>
      <point x="280" y="564" type="line"/>
      <point x="282" y="1000" type="line"/>
      <point x="170" y="858" type="line"/>
    </contour>
  </outline>
</glyph>
<glyph name="te-cy" format="2">
  <advance width="932"/>
  <unicode hex="0442"/>
  <anchor x="466" y="486" name="bar"/>
  <anchor x="466" y="0" name="bottom"/>
  <anchor x="466" y="960" name="top"/>
  <outline>
    <contour>
      <point x="410" y="0" type="line"/>
      <point x="522" y="0" type="line"/>
      <point x="522" y="856" type="line"/>
      <point x="880" y="856" type="line"/>
      <point x="880" y="960" type="line"/>
      <point x="64" y="960" type="line"/>
      <point x="40" y="856" type="line"/>
      <point x="410" y="856" type="line"/>
    </contour>
  </outline>
</glyph>
<glyph name="Yusbig-cy" format="2">
  <advance width="1910"/>
  <unicode hex="046A"/>
  <guideline x="363" y="1019" angle="129.9447"/>
  <guideline x="126" y="1351" angle="257.7639"/>
  <anchor x="1732" y="0" name="descender"/>
  <anchor x="956" y="1400" name="top"/>
  <outline>
    <contour>
      <point x="78" y="0" type="line"/>
      <point x="224" y="0" type="line"/>
      <point x="738" y="742" type="line"/>
      <point x="358" y="1292" type="line"/>
      <point x="1560" y="1292" type="line"/>
      <point x="1168" y="740" type="line"/>
      <point x="1682" y="0" type="line"/>
      <point x="1832" y="0" type="line"/>
      <point x="1308" y="742" type="line"/>
      <point x="1704" y="1302" type="line"/>
      <point x="1704" y="1400" type="line"/>
      <point x="206" y="1400" type="line"/>
      <point x="206" y="1302" type="line"/>
      <point x="600" y="736" type="line"/>
    </contour>
    <contour>
      <point x="898" y="0" type="line"/>
      <point x="1014" y="0" type="line"/>
      <point x="1014" y="698" type="line"/>
      <point x="1242" y="698" type="line"/>
      <point x="1242" y="806" type="line"/>
      <point x="668" y="806" type="line"/>
      <point x="668" y="698" type="line"/>
      <point x="898" y="698" type="line"/>
    </contour>
  </outline>
</glyph>
<glyph name="Fita-cy" format="2">
  <advance width="1676"/>
  <unicode hex="0472"/>
  <anchor x="838" y="0" name="bottom"/>
  <anchor x="1240" y="1400" name="horn"/>
  <anchor x="1050" y="0" name="ogonek"/>
  <anchor x="838" y="1400" name="top"/>
  <anchor x="152" y="1400" name="topleft"/>
  <outline>
    <contour>
      <point x="190" y="608" type="line"/>
      <point x="304" y="694"/>
      <point x="412" y="722"/>
      <point x="520" y="722" type="curve" smooth="yes"/>
      <point x="734" y="722"/>
      <point x="942" y="610"/>
      <point x="1154" y="610" type="curve" smooth="yes"/>
      <point x="1264" y="610"/>
      <point x="1374" y="640"/>
      <point x="1488" y="728" type="curve"/>
      <point x="1488" y="836" type="line"/>
      <point x="1380" y="750"/>
      <point x="1274" y="722"/>
      <point x="1168" y="722" type="curve" smooth="yes"/>
      <point x="960" y="722"/>
      <point x="752" y="834"/>
      <point x="536" y="834" type="curve" smooth="yes"/>
      <point x="424" y="834"/>
      <point x="310" y="804"/>
      <point x="190" y="716" type="curve"/>
    </contour>
    <component base="O"/>
  </outline>
</glyph>
<glyph name="gheupturn-cy" format="2">
  <advance width="830"/>
  <unicode hex="0491"/>
  <anchor x="342" y="486" name="bar"/>
  <anchor x="282" y="0" name="descender"/>
  <anchor x="470" y="960" name="top"/>
  <outline>
    <contour>
      <point x="668" y="856" type="line"/>
      <point x="772" y="856" type="line"/>
      <point x="772" y="1324" type="line"/>
      <point x="668" y="1196" type="line"/>
    </contour>
    <component base="ge-cy"/>
  </outline>
</glyph>
<glyph name="dagger" format="2">
  <advance width="1208"/>
  <unicode hex="2020"/>
  <outline>
    <contour>
      <point x="554" y="-12" type="line"/>
      <point x="654" y="-12" type="line"/>
      <point x="654" y="1066" type="line"/>
      <point x="1072" y="1066" type="line"/>
      <point x="1072" y="1164" type="line"/>
      <point x="654" y="1164" type="line"/>
      <point x="654" y="1600" type="line"/>
      <point x="554" y="1600" type="line"/>
      <point x="554" y="1164" type="line"/>
      <point x="136" y="1164" type="line"/>
      <point x="136" y="1066" type="line"/>
      <point x="554" y="1066" type="line"/>
    </contour>
  </outline>
</glyph>
<glyph name="bullet" format="2">
  <advance width="1000"/>
  <unicode hex="2022"/>
  <outline>
    <contour>
      <point x="500" y="396" type="curve" smooth="yes"/>
      <point x="672" y="396"/>
      <point x="798" y="520"/>
      <point x="798" y="688" type="curve" smooth="yes"/>
      <point x="798" y="856"/>
      <point x="672" y="980"/>
      <point x="500" y="980" type="curve" smooth="yes"/>
      <point x="328" y="980"/>
      <point x="202" y="856"/>
      <point x="202" y="688" type="curve" smooth="yes"/>
      <point x="202" y="520"/>
      <point x="328" y="396"/>
    </contour>
  </outline>
</glyph>
<glyph name="guilsinglright" format="2">
  <advance width="576"/>
  <unicode hex="203A"/>
  <outline>
    <contour>
      <point x="208" y="148" type="line"/>
      <point x="516" y="498" type="line"/>
      <point x="208" y="848" type="line"/>
      <point x="90" y="848" type="line"/>
      <point x="392" y="498" type="line"/>
      <point x="90" y="148" type="line"/>
    </contour>
  </outline>
</glyph>
<glyph name="lira" format="2">
  <advance width="1296"/>
  <unicode hex="20A4"/>
  <outline>
    <contour>
      <point x="202" y="0" type="line"/>
      <point x="1142" y="0" type="line"/>
      <point x="1166" y="104" type="line"/>
      <point x="404" y="104" type="line"/>
      <point x="556" y="198"/>
      <point x="590" y="306"/>
      <point x="590" y="416" type="curve" smooth="yes"/>
      <point x="590" y="614"/>
      <point x="444" y="848"/>
      <point x="444" y="1048" type="curve" smooth="yes"/>
      <point x="444" y="1204"/>
      <point x="540" y="1324"/>
      <point x="750" y="1324" type="curve" smooth="yes"/>
      <point x="870" y="1324"/>
      <point x="970" y="1292"/>
      <point x="1058" y="1220" type="curve"/>
      <point x="1116" y="1308" type="line"/>
      <point x="1024" y="1382"/>
      <point x="898" y="1430"/>
      <point x="754" y="1430" type="curve" smooth="yes"/>
      <point x="506" y="1430"/>
      <point x="328" y="1286"/>
      <point x="328" y="1062" type="curve" smooth="yes"/>
      <point x="328" y="832"/>
      <point x="488" y="638"/>
      <point x="488" y="426" type="curve" smooth="yes"/>
      <point x="488" y="262"/>
      <point x="394" y="170"/>
      <point x="202" y="104" type="curve"/>
    </contour>
    <contour>
      <point x="180" y="804" type="line"/>
      <point x="1018" y="804" type="line"/>
      <point x="1018" y="904" type="line"/>
      <point x="180" y="904" type="line"/>
    </contour>
    <contour>
      <point x="180" y="496" type="line"/>
      <point x="1018" y="496" type="line"/>
      <point x="1018" y="596" type="line"/>
      <point x="180" y="596" type="line"/>
    </contour>
  </outline>
</glyph>
<glyph name="dong" format="2">
  <advance width="1296"/>
  <unicode hex="20AB"/>
  <guideline x="574" y="-118" angle="270"/>
  <anchor x="996" y="1204" name="bar"/>
  <anchor x="1108" y="1440" name="caron"/>
  <outline>
    <contour>
      <point x="108" y="-282" type="line"/>
      <point x="1108" y="-282" type="line"/>
      <point x="1108" y="-190" type="line"/>
      <point x="108" y="-190" type="line"/>
    </contour>
    <component base="dcroat" xOffset="24"/>
  </outline>
</glyph>
<glyph name="downArrow" format="2">
  <advance width="1800"/>
  <unicode hex="2193"/>
  <outline>
    <contour>
      <point x="900" y="-162" type="line"/>
      <point x="1462" y="400" type="line"/>
      <point x="1394" y="468" type="line"/>
      <point x="950" y="22" type="line"/>
      <point x="948" y="1520" type="line"/>
      <point x="852" y="1520" type="line"/>
      <point x="850" y="22" type="line"/>
      <point x="406" y="468" type="line"/>
      <point x="338" y="400" type="line"/>
    </contour>
  </outline>
</glyph>
<glyph name="southEastArrow" format="2">
  <advance width="1800"/>
  <unicode hex="2198"/>
  <outline>
    <contour>
      <point x="846" y="0" type="line"/>
      <point x="1640" y="0" type="line"/>
      <point x="1638" y="794" type="line"/>
      <point x="1544" y="794" type="line"/>
      <point x="1544" y="164" type="line"/>
      <point x="316" y="1392" type="line"/>
      <point x="248" y="1324" type="line"/>
      <point x="1476" y="96" type="line"/>
      <point x="846" y="96" type="line"/>
    </contour>
  </outline>
</glyph>
<glyph name=".notdef" format="2">
  <advance width="1232"/>
  <outline>
    <contour>
      <point x="170" y="0" type="line"/>
      <point x="1062" y="0" type="line"/>
      <point x="1062" y="1400" type="line"/>
      <point x="170" y="1400" type="line"/>
    </contour>
    <contour>
      <point x="282" y="106" type="line"/>
      <point x="282" y="1296" type="line"/>
      <point x="950" y="1296" type="line"/>
      <point x="950" y="106" type="line"/>
    </contour>
  </outline>
</glyph>
<glyph name="_part.Zhe-cy" format="2">
  <advance width="2112"/>
  <anchor x="1912" y="0" name="descender"/>
  <anchor x="1056" y="1400" name="top"/>
  <outline>
    <contour>
      <point x="1870" y="0" type="line"/>
      <point x="2022" y="0" type="line"/>
      <point x="1428" y="756" type="line"/>
      <point x="1934" y="1400" type="line"/>
      <point x="1796" y="1400" type="line"/>
      <point x="1286" y="754" type="line"/>
    </contour>
    <contour>
      <point x="90" y="0" type="line"/>
      <point x="236" y="0" type="line"/>
      <point x="822" y="756" type="line"/>
      <point x="322" y="1400" type="line"/>
      <point x="180" y="1400" type="line"/>
      <point x="682" y="752" type="line"/>
    </contour>
    <contour>
      <point x="998" y="0" type="line"/>
      <point x="1114" y="0" type="line"/>
      <point x="1114" y="698" type="line"/>
      <point x="1368" y="698" type="line"/>
      <point x="1368" y="806" type="line"/>
      <point x="1114" y="806" type="line"/>
      <point x="1114" y="1400" type="line"/>
      <point x="998" y="1400" type="line"/>
      <point x="998" y="806" type="line"/>
      <point x="744" y="806" type="line"/>
      <point x="744" y="698" type="line"/>
      <point x="998" y="698" type="line"/>
    </contour>
  </outline>
</glyph>
<glyph name="_part.cy-desc-lc-stem" format="2">
  <advance width="1200"/>
  <guideline x="563" y="-150" angle="51.3402"/>
  <guideline x="563" y="-150" angle="0"/>
  <anchor x="1074" y="0" name="_descender"/>
  <outline>
    <contour>
      <point x="1074" y="-364" type="line"/>
      <point x="1178" y="-236" type="line"/>
      <point x="1178" y="104" type="line"/>
      <point x="1074" y="104" type="line"/>
    </contour>
  </outline>
</glyph>
<glyph name="_part.cy-desc-uc" format="2">
  <anchor x="-292" y="0" name="_descender"/>
  <outline>
    <contour>
      <point x="-180" y="-428" type="line"/>
      <point x="-72" y="-292" type="line"/>
      <point x="-72" y="108" type="line"/>
      <point x="-340" y="108" type="line"/>
      <point x="-340" y="0" type="line"/>
      <point x="-180" y="0" type="line"/>
    </contour>
  </outline>
</glyph>
<glyph name="_part.cy-descender-lc-center" format="2">
  <guideline x="-76" y="-150" angle="51.3402"/>
  <guideline x="-76" y="-200" angle="51.3402"/>
  <anchor x="-152" y="0" name="_bottom"/>
  <outline>
    <contour>
      <point x="-204" y="-366" type="line"/>
      <point x="-100" y="-234" type="line"/>
      <point x="-100" y="28" type="line"/>
      <point x="-204" y="28" type="line"/>
    </contour>
  </outline>
</glyph>
<glyph name="_part.cy-descender-uc-center" format="2">
  <guideline x="-76" y="-200" angle="51.3402"/>
  <anchor x="-152" y="0" name="_bottom"/>
  <outline>
    <contour>
      <point x="-206" y="-428" type="line"/>
      <point x="-98" y="-292" type="line"/>
      <point x="-98" y="28" type="line"/>
      <point x="-206" y="28" type="line"/>
    </contour>
  </outline>
</glyph>
<glyph name="_part.hryvniaBase" format="2">
  <advance width="1176"/>
  <anchor x="568" y="1400" name="top"/>
  <outline>
    <contour>
      <point x="586" y="-30" type="curve" smooth="yes"/>
      <point x="740" y="-30"/>
      <point x="902" y="12"/>
      <point x="1020" y="80" type="curve"/>
      <point x="1020" y="204" type="line"/>
      <point x="902" y="124"/>
      <point x="752" y="78"/>
      <point x="584" y="78" type="curve" smooth="yes"/>
      <point x="384" y="78"/>
      <point x="252" y="176"/>
      <point x="252" y="334" type="curve" smooth="yes"/>
      <point x="252" y="476"/>
      <point x="340" y="538"/>
      <point x="536" y="638" type="curve" smooth="yes"/>
      <point x="642" y="692" type="line" smooth="yes"/>
      <point x="844" y="794"/>
      <point x="972" y="876"/>
      <point x="972" y="1070" type="curve" smooth="yes"/>
      <point x="972" y="1304"/>
      <point x="774" y="1430"/>
      <point x="512" y="1430" type="curve" smooth="yes"/>
      <point x="372" y="1430"/>
      <point x="242" y="1392"/>
      <point x="146" y="1330" type="curve"/>
      <point x="146" y="1208" type="line"/>
      <point x="250" y="1284"/>
      <point x="392" y="1326"/>
      <point x="536" y="1326" type="curve" smooth="yes"/>
      <point x="732" y="1326"/>
      <point x="866" y="1220"/>
      <point x="866" y="1068" type="curve" smooth="yes"/>
      <point x="866" y="922"/>
      <point x="784" y="874"/>
      <point x="586" y="776" type="curve" smooth="yes"/>
      <point x="464" y="716" type="line" smooth="yes"/>
      <point x="280" y="626"/>
      <point x="144" y="538"/>
      <point x="144" y="334" type="curve" smooth="yes"/>
      <point x="144" y="136"/>
      <point x="300" y="-30"/>
    </contour>
  </outline>
</glyph>
<glyph name="_part.manat" format="2">
  <advance width="1296"/>
  <anchor x="648" y="1400" name="top"/>
  <outline>
    <contour>
      <point x="204" y="0" type="curve"/>
      <point x="318" y="0" type="line"/>
      <point x="288" y="194"/>
      <point x="272" y="390"/>
      <point x="272" y="590" type="curve" smooth="yes"/>
      <point x="272" y="892"/>
      <point x="384" y="1162"/>
      <point x="648" y="1162" type="curve" smooth="yes"/>
      <point x="908" y="1162"/>
      <point x="1024" y="896"/>
      <point x="1024" y="594" type="curve" smooth="yes"/>
      <point x="1024" y="390"/>
      <point x="1006" y="194"/>
      <point x="976" y="0" type="curve"/>
      <point x="1090" y="0" type="line"/>
      <point x="1124" y="196"/>
      <point x="1142" y="410"/>
      <point x="1142" y="594" type="curve" smooth="yes"/>
      <point x="1142" y="968"/>
      <point x="972" y="1270"/>
      <point x="648" y="1270" type="curve" smooth="yes"/>
      <point x="320" y="1270"/>
      <point x="152" y="970"/>
      <point x="152" y="598" type="curve" smooth="yes"/>
      <point x="152" y="410"/>
      <point x="170" y="204"/>
    </contour>
  </outline>
</glyph>
<glyph name="_part.tse-cy" format="2">
  <advance width="1152"/>
  <anchor x="576" y="0" name="bottom"/>
  <anchor x="982" y="0" name="descender"/>
  <outline>
    <contour>
      <point x="170" y="0" type="line"/>
      <point x="982" y="0" type="line"/>
      <point x="982" y="1000" type="line"/>
      <point x="870" y="858" type="line"/>
      <point x="870" y="104" type="line"/>
      <point x="282" y="104" type="line"/>
      <point x="282" y="1000" type="line"/>
      <point x="170" y="858" type="line"/>
    </contour>
  </outline>
</glyph>
<glyph name="_part.verticalstroke" format="2">
  <advance width="1200"/>
  <anchor x="510" y="780" name="_center"/>
  <outline>
    <contour>
      <point x="460" y="500" type="line"/>
      <point x="560" y="500" type="line"/>
      <point x="560" y="1100" type="line"/>
      <point x="460" y="974" type="line"/>
    </contour>
  </outline>
</glyph>
<glyph name="caroncomb.case" format="2">
  <anchor x="-788" y="1398" name="_top"/>
  <outline>
    <contour>
      <point x="-858" y="1592" type="line"/>
      <point x="-734" y="1592" type="line"/>
      <point x="-464" y="1904" type="line"/>
      <point x="-588" y="1904" type="line"/>
      <point x="-794" y="1668" type="line"/>
      <point x="-992" y="1904" type="line"/>
      <point x="-1112" y="1904" type="line"/>
    </contour>
  </outline>
</glyph>
<glyph name="dblgravecomb.narrow" format="2">
  <anchor x="-586" y="960" name="_top"/>
  <outline>
    <contour>
      <point x="-394" y="1170" type="line"/>
      <point x="-502" y="1504" type="line"/>
      <point x="-620" y="1504" type="line"/>
      <point x="-500" y="1170" type="line"/>
    </contour>
    <contour>
      <point x="-670" y="1170" type="line"/>
      <point x="-778" y="1504" type="line"/>
      <point x="-894" y="1504" type="line"/>
      <point x="-774" y="1170" type="line"/>
    </contour>
  </outline>
</glyph>
<glyph name="f.calt" format="2">
  <advance width="714"/>
  <outline>
    <contour>
      <point x="280" y="0" type="line"/>
      <point x="392" y="0" type="line"/>
      <point x="392" y="856" type="line"/>
      <point x="660" y="856" type="line"/>
      <point x="660" y="960" type="line"/>
      <point x="392" y="960" type="line"/>
      <point x="392" y="1234" type="line" smooth="yes"/>
      <point x="392" y="1318"/>
      <point x="414" y="1362"/>
      <point x="484" y="1362" type="curve" smooth="yes"/>
      <point x="510" y="1362"/>
      <point x="536" y="1356"/>
      <point x="561" y="1345" type="curve"/>
      <point x="561" y="1457" type="line"/>
      <point x="533" y="1465"/>
      <point x="502" y="1470"/>
      <point x="468" y="1470" type="curve" smooth="yes"/>
      <point x="351" y="1470"/>
      <point x="280" y="1401"/>
      <point x="280" y="1254" type="curve" smooth="yes"/>
    </contour>
    <contour>
      <point x="80" y="856" type="line"/>
      <point x="332" y="856" type="line"/>
      <point x="332" y="980" type="line"/>
      <point x="80" y="896" type="line"/>
    </contour>
  </outline>
</glyph>
<glyph name="ge-cy.loclBGR" format="2">
  <advance width="952"/>
  <anchor x="480" y="0" name="bottom"/>
  <anchor x="462" y="960" name="top"/>
  <outline>
    <contour>
      <point x="488" y="-30" type="curve" smooth="yes"/>
      <point x="612" y="-30"/>
      <point x="738" y="12"/>
      <point x="826" y="76" type="curve"/>
      <point x="826" y="190" type="line"/>
      <point x="742" y="118"/>
      <point x="616" y="78"/>
      <point x="490" y="78" type="curve" smooth="yes"/>
      <point x="340" y="78"/>
      <point x="244" y="148"/>
      <point x="244" y="248" type="curve" smooth="yes"/>
      <point x="244" y="388"/>
      <point x="370" y="412"/>
      <point x="502" y="450" type="curve" smooth="yes"/>
      <point x="644" y="490"/>
      <point x="796" y="558"/>
      <point x="796" y="730" type="curve" smooth="yes"/>
      <point x="796" y="894"/>
      <point x="650" y="1000"/>
      <point x="454" y="1000" type="curve" smooth="yes"/>
      <point x="334" y="1000"/>
      <point x="222" y="964"/>
      <point x="136" y="900" type="curve"/>
      <point x="136" y="786" type="line"/>
      <point x="208" y="852"/>
      <point x="334" y="892"/>
      <point x="456" y="892" type="curve" smooth="yes"/>
      <point x="584" y="892"/>
      <point x="676" y="824"/>
      <point x="676" y="730" type="curve" smooth="yes"/>
      <point x="676" y="608"/>
      <point x="578" y="576"/>
      <point x="448" y="538" type="curve" smooth="yes"/>
      <point x="298" y="494"/>
      <point x="124" y="428"/>
      <point x="124" y="248" type="curve" smooth="yes"/>
      <point x="124" y="70"/>
      <point x="270" y="-30"/>
    </contour>
  </outline>
</glyph>
<glyph name="horncomb.alt" format="2">
  <anchor x="-210" y="960" name="_horn"/>
  <outline>
    <contour>
      <point x="-190" y="802" type="curve" smooth="yes"/>
      <point x="-62" y="802"/>
      <point x="2" y="886"/>
      <point x="2" y="984" type="curve" smooth="yes"/>
      <point x="2" y="1035"/>
      <point x="-16" y="1094"/>
      <point x="-57" y="1150" type="curve"/>
      <point x="-166" y="1150" type="line"/>
      <point x="-124" y="1086"/>
      <point x="-104" y="1027"/>
      <point x="-104" y="982" type="curve" smooth="yes"/>
      <point x="-104" y="926"/>
      <point x="-134" y="886"/>
      <point x="-210" y="886" type="curve" smooth="yes"/>
      <point x="-222" y="886"/>
      <point x="-238" y="888"/>
      <point x="-258" y="892" type="curve"/>
      <point x="-258" y="812" type="line"/>
      <point x="-232" y="806"/>
      <point x="-210" y="802"/>
    </contour>
  </outline>
</glyph>
<glyph name="horncomb.case" format="2">
  <anchor x="-436" y="1400" name="_horn"/>
  <outline>
    <contour>
      <point x="-296" y="1228" type="curve" smooth="yes"/>
      <point x="-166" y="1228"/>
      <point x="-98" y="1308"/>
      <point x="-98" y="1402" type="curve" smooth="yes"/>
      <point x="-98" y="1451"/>
      <point x="-119" y="1507"/>
      <point x="-160" y="1560" type="curve"/>
      <point x="-270" y="1560" type="line"/>
      <point x="-229" y="1504"/>
      <point x="-206" y="1447"/>
      <point x="-206" y="1402" type="curve" smooth="yes"/>
      <point x="-206" y="1347"/>
      <point x="-239" y="1310"/>
      <point x="-316" y="1310" type="curve" smooth="yes"/>
      <point x="-412" y="1310"/>
      <point x="-622" y="1430"/>
      <point x="-838" y="1430" type="curve"/>
      <point x="-838" y="1362" type="line"/>
      <point x="-610" y="1362"/>
      <point x="-422" y="1228"/>
    </contour>
  </outline>
</glyph>
<glyph name="three.numr" format="2">
  <advance width="816"/>
  <outline>
    <contour>
      <point x="372" y="470" type="curve" smooth="yes"/>
      <point x="568" y="470"/>
      <point x="708" y="584"/>
      <point x="708" y="756" type="curve" smooth="yes"/>
      <point x="708" y="942"/>
      <point x="542" y="1032"/>
      <point x="352" y="1022" type="curve"/>
      <point x="666" y="1316" type="line"/>
      <point x="666" y="1400" type="line"/>
      <point x="98" y="1400" type="line"/>
      <point x="78" y="1308" type="line"/>
      <point x="532" y="1308" type="line"/>
      <point x="208" y="1008" type="line"/>
      <point x="242" y="936" type="line"/>
      <point x="280" y="944"/>
      <point x="322" y="948"/>
      <point x="354" y="948" type="curve" smooth="yes"/>
      <point x="504" y="948"/>
      <point x="602" y="878"/>
      <point x="602" y="760" type="curve" smooth="yes"/>
      <point x="602" y="642"/>
      <point x="510" y="566"/>
      <point x="366" y="566" type="curve" smooth="yes"/>
      <point x="278" y="566"/>
      <point x="172" y="596"/>
      <point x="108" y="646" type="curve"/>
      <point x="108" y="537" type="line"/>
      <point x="174" y="497"/>
      <point x="275" y="470"/>
    </contour>
  </outline>
</glyph>
<glyph name="tildecomb.narrow" format="2">
  <anchor x="-585" y="960" name="_top"/>
  <anchor x="-585" y="1344" name="top"/>
  <outline>
    <contour>
      <point x="-865" y="1246" type="line"/>
      <point x="-831" y="1302"/>
      <point x="-785" y="1330"/>
      <point x="-723" y="1330" type="curve" smooth="yes"/>
      <point x="-649" y="1330"/>
      <point x="-552" y="1246"/>
      <point x="-458" y="1246" type="curve" smooth="yes"/>
      <point x="-395" y="1246"/>
      <point x="-345" y="1275"/>
      <point x="-307" y="1325" type="curve"/>
      <point x="-307" y="1430" type="line"/>
      <point x="-341" y="1374"/>
      <point x="-387" y="1346"/>
      <point x="-449" y="1346" type="curve" smooth="yes"/>
      <point x="-523" y="1346"/>
      <point x="-620" y="1430"/>
      <point x="-714" y="1430" type="curve" smooth="yes"/>
      <point x="-775" y="1430"/>
      <point x="-826" y="1403"/>
      <point x="-865" y="1351" type="curve"/>
    </contour>
  </outline>
</glyph>
